<svg xmlns="http://www.w3.org/2000/svg" xmlns:xlink="http://www.w3.org/1999/xlink" width="2500" height="2500" viewBox="0 0 192.756 192.756" id="hello">
  <path fill="#fff" d="M0 0h192.756v192.756H0z"></path>
  <path fill="#de99bf" d="M20.446 174.522l-3.085-.385-.385-28.146h5.654l-.899 11.053 4.755-.128.514-8.097 3.47-.129-.386 21.977-3.855.257.386-10.538h-5.141zM41.554 171.791c3.856.192 4.82-2.795 4.916-3.565.097-.771 0-2.218-1.735-2.218s-1.414 2.474-1.414 2.474l-3.727-.127c-.129-6.17 9.253-6.939 9.767-.771.515 6.168-9.51 8.995-14.008 3.983-6.297-7.84-3.084-20.307 6.94-20.436s5.912 10.796 5.912 10.796H36.382c-.064 5.752 1.317 9.672 5.172 9.864zm.097-17.733c-3.759 0-5.012 5.879-5.012 5.879l7.71-.097c.001 0 1.061-5.782-2.698-5.782zM55.788 171.824h-3.985l1.029-27.503 3.856-.129zM63.113 171.695H59l1.286-27.374 3.727-.129zM74.423 173.494c-5.495-.354-11.952-10.024-7.197-15.422 4.754-5.397 17.442-4.851 16.579 5.141-.9 10.41-9.382 10.281-9.382 10.281zm5.686-11.148c-1.638-7.133-10.217-4.53-10.506.192s2.53 7.936 5.109 8.289c2.795.387 5.59-3.181 5.397-8.481zM108.741 158.233l7.628-9.697-5.933-.096-6.496 12.334-.188-13.086-4.987.094 1.129 26.174 3.481-.094.155-8.914 2.025-2.313c0 4.724 2.527 10.382 8.365 10.382 5.836 0 6.967-5.086 6.967-5.086s1.977-8.756-4.426-8.756-5.084 6.402-5.084 6.402l3.201.283s0-3.015 1.412-2.731c1.227.213 1.547 1.498 1.482 2.849-.062 1.35-1.027 4.305-3.34 4.176-2.313-.13-5.445-2.571-5.391-11.921zM127.009 172.812h-3.393l-.536-15.979 4.819-.089z"></path>
  <path fill="#de99bf" stroke="#de99bf" stroke-miterlimit="2.613" stroke-width=".386" d="M125.224 150.495c.09-.803 1.428-1.964 3.125-.893 1.696 1.069 1.069 2.767.178 3.659-.894.894-3.394 2.679-3.394 2.679s-2.5-1.785-3.392-2.679c-.893-.894-1.52-2.59.179-3.659 1.696-1.071 3.216.09 3.304.893z"></path>
  <path fill="#de99bf" d="M132.513 145.863h3.854l-.896 7.067 6.168.129-.386 2.699-5.912.258s-.771 9.767-.899 11.438.129 2.699 2.57 2.827c2.44.129 1.543-5.526 1.543-5.526l3.213-.385s2.336 9.109-5.142 9.381c-7.067.258-5.785-8.096-5.655-9.895.128-1.798 1.542-17.993 1.542-17.993zM146.136 145.863h3.854l-.899 7.067 6.171.129-.388 2.699-5.912.258s-.771 9.767-.897 11.438c-.129 1.671.129 2.699 2.57 2.827 2.439.129 1.541-5.526 1.541-5.526l3.213-.385s2.338 9.109-5.142 9.381c-7.067.258-5.783-8.096-5.653-9.895.128-1.798 1.542-17.993 1.542-17.993zM158.474 152.675l4.627.129s-4.113 13.108.643 15.807c2.826 1.544 5.012-1.026 5.012-1.026l-.643-9.639s-.514-4.628 2.828-7.712l3.598 3.6s-2.699 1.927-2.57 5.525c.129 3.598 1.029 18.377-2.57 21.334-3.599 2.955-11.117 3.822-12.66-3.021-.577-2.57 1.802-4.818 5.527-4.755 3.727.063 5.012 2.699 3.855 5.462l-2.25-.062s.193-2.506-1.67-2.506-2.119 3.598-.191 4.11c1.928.515 6.553 1.028 6.682-5.012v-5.397c-2.313 2.377-7.518 3.148-10.022-2.346-2.513-5.495-1.066-12.112-.196-14.491z"></path>
  <path d="M106.252 10.438c10.022-2.704 16.052 4.681 18.728 8.027.67 1.338 1.336.668 3.346 0 6.688-3.346 20.064-6.689 25.416-4.682 4.686 2.673 8.027 14.046 8.027 21.404 0 1.338 0 2.006 1.34 3.346 2.674 2.008 6.688 10.036.67 20.737-.67.67-1.342 1.34-.67 2.676 2.006 3.346 4.012 12.711 4.682 16.055 0 2.678.67 2.008 2.008 2.008 2.006 0 8.693.669 11.369.669 2.676.668 5.352 4.014 0 4.014h-10.033c-2.01 0-3.344 0-3.344 2.006 0 1.338-.67 6.691-.67 7.359 0 1.338.67 2.006 2.678 2.676 2.006 0 7.357 1.338 8.693 2.006.67 0 2.01 2.007 0 2.678-2.006.669-6.688 0-10.031-.671-2.012 0-2.678.671-3.346 2.007 0 .668-2.006 5.352-2.678 6.689-.668 1.339-.668 1.339.672 2.009 1.334.668 6.016 3.344 8.695 4.681 4.012 2.01 2.676 5.354-.67 4.016-2.011-.668-7.355-2.677-9.365-4.016-2.006-.667-2.676-.667-4.013.001-4.017 6.021-10.508 10.407-16.726 13.382-12.895 6.174-49.505 13.771-87.62-1.34-5.314-2.105-10.038-5.352-14.049-8.695-.669-.668-1.339-.668-2.675 0-2.011 1.338-7.361 4.014-10.703 6.02-2.009 2.009-4.681 0-2.675-2.675 2.005-2.007 8.697-6.022 10.032-6.69 1.335 0 2.01-.668.67-2.006-1.341-1.338-3.347-4.684-4.012-6.689-.674-1.338-1.34-1.338-3.346-1.338-2.008.67-4.014.67-6.69 1.338s-2.676-2.677 0-3.344c1.339-.673 4.011-2.008 5.351-2.008 1.339-.669 2.006-.669 1.339-2.009-.669-1.338-2.008-6.687-2.008-8.695-.67-1.338-.67-1.338-2.005-1.338-1.337 0-9.367.67-11.372.67-3.347 1.335-4.012-2.678 0-3.346 2.005-1.339 7.355-1.339 10.035-2.008 1.337 0 2.672 0 2.672-.668C23.31 73.99 26.654 64.622 30 58.603c1.336-3.344 1.336-2.676.665-5.352-2.674-8.027-3.344-20.069 2.006-30.772 2.681-3.345 4.686-6.022 10.702-6.022 5.352.671 17.781 5.568 21.796 7.574 2.313 1.799 4.626.257 6.939-.258 2.314-.514 14.65-1.799 21.077-1.542 1.286-1.285 5.569-9.772 13.067-11.793z"></path>
  <path fill="#fff" d="M96.218 53.251c4.011 2.008 9.362 2.676 15.382.667 3.346-1.335 4.012-2.005 5.353 0 1.34 3.346 7.356 6.692 10.702 6.692 2.005 0 2.005.668 2.675 2.006 1.34 2.005 5.353 8.697 12.709 10.033 4.015 0 8.694-1.335 13.377-5.351 1.34-.668 2.011-2.006 3.347 0 1.34 2.678 2.674 9.368 2.674 11.374 0 1.338-.668 2.008-.668 2.008-2.006.668-5.353.668-6.688 1.338-2.677.668-2.677 3.344-1.341 4.012 2.011.669 4.017 0 6.021-.668 2.006 0 2.674 0 2.674 1.338 0 2.006 0 6.02-.668 7.359 0 1.338-.666 1.338-1.336 1.338h-3.346c-1.336.668-2.006 1.338-1.336 2.676 1.336 1.339 2.676 1.338 4.012 1.338 1.34.668-2.006 6.689-2.676 8.027-.67 2.006-2.006 1.338-3.346 1.338-1.336 0-3.342-.67-4.012.668-.67 1.339-.67 1.339.67 2.677.666.67 2.676.67 2.006 2.008-1.34 2.006-7.357 8.027-18.729 12.041-15.383 5.351-38.127 6.69-60.868 2.007-13.381-2.677-22.744-6.688-28.094-11.374-1.341-.668 0-1.336.665-2.005 1.34 0 2.679-.669 2.679-2.007.666-.67 0-2.008-2.005-2.008-.674 0-3.345.67-4.687 1.338-1.339.67-1.339 0-2.675-.668-2.005-2.009-3.341-5.353-4.016-6.021-.665-1.337 0-1.337 1.341-2.01 1.339 0 3.344-.667 4.011-1.335.67-.669-.667-2.676-2.671-2.009h-4.016c-.671 0-.67-.667-1.335-1.338C31.336 96.734 30 92.051 30 90.715c0-1.34.665-.67 2.006-.67h6.017c1.339-.67 1.339-2.676.669-3.346-.669-.669-4.681-1.338-7.356-1.338-2.677 0-2.01-.668-2.01-4.014 0-7.357 3.345-18.061 8.031-26.088 1.335-2.008 3.342-4.013 3.342-5.352 0-2.008-2.006-3.346-3.342-2.008-1.339.669-1.339 1.338-2.005 0-4.015-10.706 1.604-22.354 4.677-24.753 3.808-2.972 19.497 4.228 25.656 7.309 1.027.514 4.682-.515 6.425-1.028 3.277-.964 18.507-1.8 18.507-1.8s.386.258-.386 2.378c-.772 2.121-5.375 15.647 5.987 23.246z"></path>
  <path fill="#cc2229" d="M94.208 41.21c1.34 7.359 6.021 10.036 14.717 8.697 2.006-.67 4.012-1.338 4.682-2.008s.67-2.008.67-2.676c-.67-.67-6.688-2.006-6.02-8.698.668-6.02 6.02-7.357 7.355-7.357 4.016-.67 6.689 2.006 7.359 2.675.668.668 2.006-.669 2.006-2.007-.668-3.344-4.01-8.028-6.021-10.703-1.336-1.338-4.683-5.35-10.032-4.015-8.027 2.677-14.716 17.394-14.716 26.092z"></path>
  <path fill="#fff" d="M156.416 31.844c0 1.338.67 2.677-1.336 2.006-3.347-.667-10.703.671-12.707 1.338-2.013.67-2.013.67-3.347-.667-1.34-1.338-3.346-2.677-7.356-3.346-2.01-.669-1.34-1.338-2.01-3.345-.664-2.008-.664-2.676.67-4.014 7.356-3.346 14.047-6.021 18.729-5.352 5.351.001 6.691 8.699 7.357 13.38z"></path>
  <path fill="#cc2229" d="M118.959 34.521c-.666.667-3.347 4.683-3.347 6.021-.666 1.338-3.342-.67-3.342-3.348.666-1.335.666-2.673 2.676-3.344 2.007-1.338 4.683.671 4.013.671zM139.026 46.562c-.67 4.684-3.346 7.357-5.352 8.697-6.691 3.344-16.053-2.008-14.717-10.705.67-4.012 2.676-7.36 6.689-8.028 8.701-3.344 14.714 4.016 13.38 10.036zM161.103 43.886c2.676 4.683-.67 12.041-4.017 16.055-6.021 6.689-10.7 8.697-16.056 7.357-3.344-1.336-5.35-4.012-6.686-6.02 0-1.338.666-1.338 1.336-2.008 1.34-.668 2.006-1.338 2.676-.668 2.674.668 6.689.668 8.695-1.338 2.006-1.338 2.676-5.352 2.006-8.027-1.336-2.676-3.344-3.346-4.682-4.014-.668-.67-.668-2.006-.668-2.676-.67-1.337-.67-2.006 0-2.006 1.338-.67 4.014-1.338 6.02-1.338 2.006-.67 8.7-.67 11.376 4.683z"></path>
  <path fill="#cc2229" d="M143.709 55.259c-1.336 0-3.349 0-2.679-.67.673-1.338 2.009-3.343 2.009-4.682.67-.67 1.338 0 2.008 1.338.668 1.338 0 3.344-1.338 4.014z"></path>
  <path d="M54.158 95.498c0 2.676 1.334 5.351 4.681 5.351 4.011 0 5.352-3.343 5.352-6.019s-.671-7.359-5.352-7.359c-4.011 0-4.681 4.683-4.681 8.027zM124.772 93.391c0 4.01 2.01 6.687 6.021 6.687 2.674 0 4.684-2.677 4.684-6.019 0-4.684-2.01-6.69-5.35-6.69-4.017 0-5.355 4.014-5.355 6.022zM87.77 104.762c0 4.683 4.011 6.69 8.696 6.69 5.348 0 8.021-3.346 8.021-6.021s-3.346-6.02-8.021-6.02c-6.026 0-8.696 2.676-8.696 5.351z"></path>
  <path fill="#f2c831" d="M91.781 105.431c0 2.008 2.005 2.676 4.685 2.676 2.672 0 4.012-.668 4.012-2.676 0-2.009-2.006-2.676-4.687-2.676-2.005 0-4.01.667-4.01 2.676z"></path>
  <defs>
    <path id="a" d="M20.446 174.522l-3.085-.385-.385-28.146h5.654l-.899 11.053 4.755-.128.514-8.097 3.47-.129-.386 21.977-3.855.257.386-10.538h-5.141z"></path>
  </defs>
  <clipPath id="b">
    <use xlink:href="#a" overflow="visible"></use>
  </clipPath>
  <g clip-path="url(#b)">
    <defs>
      <path id="c" d="M16.976 145.991H30.47v28.531H16.976z"></path>
    </defs>
    <clipPath id="d">
      <use xlink:href="#c" overflow="visible"></use>
    </clipPath>
  </g>
  <g clip-path="url(#b)">
    <defs>
      <path id="e" d="M41.554 171.791c3.856.192 4.82-2.795 4.916-3.565.097-.771 0-2.218-1.735-2.218s-1.414 2.474-1.414 2.474l-3.727-.127c-.129-6.17 9.253-6.939 9.767-.771.515 6.168-9.51 8.995-14.008 3.983-6.297-7.84-3.084-20.307 6.94-20.436s5.912 10.796 5.912 10.796H36.382c-.064 5.752 1.317 9.672 5.172 9.864zm.097-17.733c-3.759 0-5.012 5.879-5.012 5.879l7.71-.097c.001 0 1.061-5.782-2.698-5.782z"></path>
    </defs>
    <clipPath id="f">
      <use xlink:href="#e" overflow="visible"></use>
    </clipPath>
    <g clip-path="url(#f)">
      <defs>
        <path id="g" d="M29.056 151.003h23.262v25.575H29.056z"></path>
      </defs>
      <clipPath id="h">
        <use xlink:href="#g" overflow="visible"></use>
      </clipPath>
    </g>
    <g clip-path="url(#f)">
      <defs>
        <path id="i" d="M55.788 171.824h-3.985l1.029-27.503 3.856-.129z"></path>
      </defs>
      <clipPath id="j">
        <use xlink:href="#i" overflow="visible"></use>
      </clipPath>
      <g clip-path="url(#j)">
        <defs>
          <path id="k" d="M51.803 144.192h4.884v27.632h-4.884z"></path>
        </defs>
        <clipPath id="l">
          <use xlink:href="#k" overflow="visible"></use>
        </clipPath>
      </g>
      <g clip-path="url(#j)">
        <defs>
          <path id="m" d="M63.113 171.695H59l1.286-27.374 3.727-.129z"></path>
        </defs>
        <clipPath id="n">
          <use xlink:href="#m" overflow="visible"></use>
        </clipPath>
        <g clip-path="url(#n)">
          <defs>
            <path id="o" d="M59 144.192h5.012v27.503H59z"></path>
          </defs>
          <clipPath id="p">
            <use xlink:href="#o" overflow="visible"></use>
          </clipPath>
        </g>
        <g clip-path="url(#n)">
          <defs>
            <path id="q" d="M74.423 173.494c-5.495-.354-11.952-10.024-7.197-15.422 4.754-5.397 17.442-4.851 16.579 5.141-.9 10.41-9.382 10.281-9.382 10.281zm5.686-11.148c-1.638-7.133-10.217-4.53-10.506.192s2.53 7.936 5.109 8.289c2.795.387 5.59-3.181 5.397-8.481z"></path>
          </defs>
          <clipPath id="r">
            <use xlink:href="#q" overflow="visible"></use>
          </clipPath>
          <g clip-path="url(#r)">
            <defs>
              <path id="s" d="M62.471 152.675h22.197v20.948H62.471z"></path>
            </defs>
            <clipPath id="t">
              <use xlink:href="#s" overflow="visible"></use>
            </clipPath>
          </g>
          <g clip-path="url(#r)">
            <defs>
              <path id="u" d="M108.741 158.233l7.628-9.697-5.933-.096-6.496 12.334-.188-13.086-4.987.094 1.129 26.174 3.481-.094.155-8.914 2.025-2.313c0 4.724 2.527 10.382 8.365 10.382 5.836 0 6.967-5.086 6.967-5.086s1.977-8.756-4.426-8.756-5.084 6.402-5.084 6.402l3.201.283s0-3.015 1.412-2.731c1.227.213 1.547 1.498 1.482 2.849-.062 1.35-1.027 4.305-3.34 4.176-2.313-.13-5.445-2.571-5.391-11.921z"></path>
            </defs>
            <clipPath id="v">
              <use xlink:href="#u" overflow="visible"></use>
            </clipPath>
            <g clip-path="url(#v)">
              <defs>
                <path id="w" d="M98.765 147.688h24.102v26.268H98.765z"></path>
              </defs>
              <clipPath id="x">
                <use xlink:href="#w" overflow="visible"></use>
              </clipPath>
            </g>
            <g clip-path="url(#v)">
              <defs>
                <path id="y" d="M127.009 172.812h-3.393l-.536-15.979 4.819-.089z"></path>
              </defs>
              <clipPath id="z">
                <use xlink:href="#y" overflow="visible"></use>
              </clipPath>
              <g clip-path="url(#z)">
                <defs>
                  <path id="A" d="M123.08 156.744h4.819v16.067h-4.819z"></path>
                </defs>
                <clipPath id="B">
                  <use xlink:href="#A" overflow="visible"></use>
                </clipPath>
              </g>
              <g clip-path="url(#z)">
                <defs>
                  <path id="C" d="M125.224 150.495c.09-.803 1.428-1.964 3.125-.893 1.696 1.069 1.069 2.767.178 3.659-.894.894-3.394 2.679-3.394 2.679s-2.5-1.785-3.392-2.679c-.893-.894-1.52-2.59.179-3.659 1.696-1.071 3.216.09 3.304.893z"></path>
                </defs>
                <clipPath id="D">
                  <use xlink:href="#C" overflow="visible"></use>
                </clipPath>
                <g clip-path="url(#D)">
                  <defs>
                    <path id="E" d="M120.224 148.531h9.821v7.409h-9.821z"></path>
                  </defs>
                  <clipPath id="F">
                    <use xlink:href="#E" overflow="visible"></use>
                  </clipPath>
                </g>
                <path fill="none" stroke="#de99bf" stroke-miterlimit="2.613" stroke-width=".386" d="M125.224 150.495c.09-.803 1.428-1.964 3.125-.893 1.696 1.069 1.069 2.767.178 3.659-.894.894-3.394 2.679-3.394 2.679s-2.5-1.785-3.392-2.679c-.893-.894-1.52-2.59.179-3.659 1.696-1.071 3.216.09 3.304.893z" clip-path="url(#D)"></path>
                <g clip-path="url(#D)">
                  <defs>
                    <path id="G" d="M132.513 145.863h3.854l-.896 7.067 6.168.129-.386 2.699-5.912.258s-.771 9.767-.899 11.438.129 2.699 2.57 2.827c2.44.129 1.543-5.526 1.543-5.526l3.213-.385s2.336 9.109-5.142 9.381c-7.067.258-5.785-8.096-5.655-9.895.128-1.798 1.542-17.993 1.542-17.993z"></path>
                  </defs>
                  <clipPath id="H">
                    <use xlink:href="#G" overflow="visible"></use>
                  </clipPath>
                  <g clip-path="url(#H)">
                    <defs>
                      <path id="I" d="M129.558 145.863h14.545v28.146h-14.545z"></path>
                    </defs>
                    <clipPath id="J">
                      <use xlink:href="#I" overflow="visible"></use>
                    </clipPath>
                  </g>
                  <g clip-path="url(#H)">
                    <defs>
                      <path id="K" d="M146.136 145.863h3.854l-.899 7.067 6.171.129-.388 2.699-5.912.258s-.771 9.767-.897 11.438c-.129 1.671.129 2.699 2.57 2.827 2.439.129 1.541-5.526 1.541-5.526l3.213-.385s2.338 9.109-5.142 9.381c-7.067.258-5.783-8.096-5.653-9.895.128-1.798 1.542-17.993 1.542-17.993z"></path>
                    </defs>
                    <clipPath id="L">
                      <use xlink:href="#K" overflow="visible"></use>
                    </clipPath>
                    <g clip-path="url(#L)">
                      <defs>
                        <path id="M" d="M143.179 145.863h14.547v28.146h-14.547z"></path>
                      </defs>
                      <clipPath id="N">
                        <use xlink:href="#M" overflow="visible"></use>
                      </clipPath>
                    </g>
                    <g clip-path="url(#L)">
                      <defs>
                        <path id="O" d="M158.474 152.675l4.627.129s-4.113 13.108.643 15.807c2.826 1.544 5.012-1.026 5.012-1.026l-.643-9.639s-.514-4.628 2.828-7.712l3.598 3.6s-2.699 1.927-2.57 5.525c.129 3.598 1.029 18.377-2.57 21.334-3.599 2.955-11.117 3.822-12.66-3.021-.577-2.57 1.802-4.818 5.527-4.755 3.727.063 5.012 2.699 3.855 5.462l-2.25-.062s.193-2.506-1.67-2.506-2.119 3.598-.191 4.11c1.928.515 6.553 1.028 6.682-5.012v-5.397c-2.313 2.377-7.518 3.148-10.022-2.346-2.513-5.495-1.066-12.112-.196-14.491z"></path>
                      </defs>
                      <clipPath id="P">
                        <use xlink:href="#O" overflow="visible"></use>
                      </clipPath>
                      <g clip-path="url(#P)">
                        <defs>
                          <path id="Q" d="M156.157 150.233h18.38v34.281h-18.38z"></path>
                        </defs>
                        <clipPath id="R">
                          <use xlink:href="#Q" overflow="visible"></use>
                        </clipPath>
                      </g>
                    </g>
                  </g>
                </g>
              </g>
            </g>
          </g>
        </g>
      </g>
    </g>
  </g>
</svg>
